PathFileType	4	(X/Y/Z)
DataRate	CameraRate	NumFrames	NumMarkers	Units	OrigDataRate	OrigDataStartFrame	OrigNumFrames	
	120.0	120.0	10	39	mm	120.0	87	231
Frame#	Time	midhip	hip_r	hip_l	knee_r	knee_l	ankle_r	ankle_l	midasis	asis_r	asis_l	psis_r	psis_l	epicondLat_r	epicondLat_l	epicondMed_r	epicondMed_l	malleolusLat_r	malleolusLat_l	malleolusMedv_r	malleolusMedv_l	heel_r	heel_l	sternalnotch	xyphoidprocess	neck	subclavicle_r	subclavicle_l	toe_r	toe_l	thighwand_r	thighwand_l	upperleg1_r	upperleg1_l	upperleg2_r	upperleg2_l	shankwand_r	shankwand_l	lowerleg1_r	lowerleg1_l
	X1	Y1	Z1	X2	Y2	Z2	X3	Y3	Z3	X4	Y4	Z4	X5	Y5	Z5	X6	Y6	Z6	X7	Y7	Z7	X8	Y8	Z8	X9	Y9	Z9	X10	Y10	Z10	X11	Y11	Z11	X12	Y12	Z12	X13	Y13	Z13	X14	Y14	Z14	X15	Y15	Z15	X16	Y16	Z16	X17	Y17	Z17	X18	Y18	Z18	X19	Y19	Z19	X20	Y20	Z20	X21	Y21	Z21	X22	Y22	Z22	X23	Y23	Z23	X24	Y24	Z24	X25	Y25	Z25	X26	Y26	Z26	X27	Y27	Z27	X28	Y28	Z28	X29	Y29	Z29	X30	Y30	Z30	X31	Y31	Z31	X32	Y32	Z32	X33	Y33	Z33	X34	Y34	Z34	X35	Y35	Z35	X36	Y36	Z36	X37	Y37	Z37	X38	Y38	Z38	X39	Y39	Z39

	87	0.72500	1455.358	835.418	-260.196	1466.200	836.401	-202.478	1444.517	834.435	-317.914	1444.203	459.974	-176.898	1441.728	465.216	-344.726	1420.346	63.532	-173.187	1416.608	65.972	-356.259	1526.308	905.312	-268.649	1536.442	907.186	-168.103	1516.175	903.438	-369.196	1378.625	958.138	-228.689	1372.206	957.614	-283.302	1458.410	462.749	-123.837	1445.861	469.121	-398.928	1429.035	454.075	-229.526	1434.760	452.417	-293.527	1410.296	64.484	-136.034	1409.325	67.521	-394.032	1442.471	76.888	-200.948	1439.132	76.132	-333.632	1373.485	42.940	-167.910	1370.816	47.918	-344.622	1498.916	1299.618	-286.955	1569.980	1139.601	-279.986	1415.307	1349.096	-273.913	1519.597	1294.647	-228.077	1509.021	1285.988	-336.839	1533.635	41.307	-126.883	1532.109	39.108	-407.609	1591.936	622.748	-200.982	1575.969	626.840	-330.973	1524.048	678.837	-151.309	1503.323	674.403	-382.766	1510.700	593.942	-145.727	1501.290	586.508	-380.557	1412.072	187.575	-65.305	1363.214	186.413	-444.550	1416.391	193.523	-107.038	1384.566	190.714	-407.170
	88	0.73333	1455.523	835.422	-260.149	1466.296	836.391	-202.418	1444.749	834.452	-317.880	1444.240	459.968	-176.787	1441.640	465.254	-344.624	1420.346	63.517	-173.160	1416.593	65.956	-356.252	1526.441	905.360	-268.496	1536.458	907.205	-167.921	1516.424	903.515	-369.070	1378.625	958.130	-228.510	1372.234	957.599	-283.123	1458.426	462.750	-123.721	1445.788	469.145	-398.827	1429.168	453.947	-229.276	1435.068	452.239	-293.466	1410.280	64.463	-136.012	1409.322	67.512	-394.027	1442.447	76.857	-200.940	1439.034	75.989	-333.599	1373.486	42.938	-167.908	1370.820	47.897	-344.650	1498.658	1299.664	-286.712	1570.087	1139.804	-279.856	1414.767	1349.051	-273.590	1519.383	1294.713	-227.855	1508.765	1286.080	-336.601	1533.638	41.310	-126.876	1532.107	39.115	-407.613	1591.996	622.708	-200.673	1575.894	626.929	-330.793	1524.088	678.758	-151.095	1503.129	674.421	-382.559	1510.749	593.868	-145.484	1501.293	586.555	-380.409	1412.093	187.550	-65.267	1363.212	186.435	-444.536	1416.371	193.490	-107.016	1384.568	190.733	-407.171
	89	0.74167	1455.664	835.411	-260.066	1466.397	836.375	-202.328	1444.931	834.447	-317.805	1444.272	459.954	-176.680	1441.558	465.281	-344.521	1420.371	63.486	-173.128	1416.595	65.924	-356.250	1526.559	905.381	-268.352	1536.505	907.213	-167.773	1516.612	903.549	-368.930	1378.631	958.117	-228.325	1372.263	957.586	-282.924	1458.443	462.737	-123.610	1445.717	469.166	-398.723	1429.166	453.874	-229.058	1435.409	452.055	-293.419	1410.295	64.426	-135.981	1409.333	67.487	-394.027	1442.442	76.828	-200.918	1438.954	75.828	-333.567	1373.489	42.928	-167.904	1370.730	47.933	-344.571	1498.408	1299.713	-286.435	1570.093	1139.958	-279.834	1414.371	1348.997	-273.281	1519.255	1294.749	-227.668	1508.438	1286.182	-336.309	1533.645	41.296	-126.868	1532.113	39.112	-407.617	1592.065	622.635	-200.356	1575.791	627.037	-330.592	1524.162	678.695	-150.898	1502.907	674.418	-382.370	1510.749	593.752	-145.251	1501.308	586.640	-380.269	1412.122	187.511	-65.222	1363.218	186.452	-444.524	1416.398	193.464	-106.986	1384.576	190.743	-407.169
	90	0.75000	1455.804	835.390	-259.955	1466.537	836.356	-202.216	1445.070	834.424	-317.694	1444.300	459.936	-176.577	1441.485	465.305	-344.420	1420.412	63.449	-173.091	1416.612	65.883	-356.258	1526.677	905.382	-268.240	1536.619	907.214	-167.704	1516.735	903.549	-368.775	1378.639	958.100	-228.139	1372.299	957.576	-282.715	1458.465	462.714	-123.505	1445.649	469.189	-398.621	1429.069	453.872	-228.857	1435.659	451.966	-293.132	1410.331	64.383	-135.946	1409.356	67.455	-394.035	1442.454	76.802	-200.888	1439.071	75.950	-333.615	1373.490	42.916	-167.900	1370.606	47.980	-344.449	1498.152	1299.732	-286.103	1569.960	1140.025	-279.670	1414.046	1348.943	-272.951	1518.971	1294.707	-227.345	1508.221	1286.274	-335.976	1533.657	41.273	-126.865	1532.133	39.095	-407.622	1592.133	622.540	-200.054	1575.669	627.166	-330.370	1524.237	678.649	-150.634	1502.691	674.428	-382.110	1510.722	593.621	-144.990	1501.264	586.707	-380.009	1412.158	187.465	-65.174	1363.227	186.468	-444.514	1416.461	193.424	-106.913	1384.587	190.743	-407.141
	91	0.75833	1455.928	835.368	-259.807	1466.692	836.341	-202.074	1445.165	834.395	-317.540	1444.327	459.916	-176.473	1441.421	465.331	-344.315	1420.453	63.414	-173.051	1416.640	65.843	-356.274	1526.783	905.374	-268.134	1536.770	907.214	-167.677	1516.796	903.533	-368.591	1378.646	958.083	-227.954	1372.339	957.570	-282.503	1458.494	462.684	-123.401	1445.583	469.221	-398.516	1428.992	453.846	-228.754	1435.735	451.973	-292.604	1410.374	64.341	-135.906	1409.384	67.424	-394.051	1442.463	76.757	-200.859	1439.100	75.925	-333.631	1373.488	42.906	-167.892	1370.473	48.041	-344.313	1497.853	1299.721	-285.748	1569.655	1140.012	-279.282	1413.747	1348.904	-272.625	1518.479	1294.623	-226.934	1508.088	1286.327	-335.599	1533.674	41.249	-126.864	1532.159	39.071	-407.628	1592.184	622.436	-199.774	1575.543	627.316	-330.133	1524.267	678.551	-150.341	1502.492	674.435	-381.823	1510.681	593.454	-144.752	1501.140	586.688	-379.651	1412.200	187.417	-65.123	1363.235	186.487	-444.504	1416.538	193.351	-106.832	1384.610	190.726	-407.106
	92	0.76667	1455.981	835.349	-259.585	1466.789	836.335	-201.860	1445.173	834.362	-317.309	1444.358	459.899	-176.363	1441.363	465.355	-344.202	1420.489	63.385	-173.011	1416.670	65.807	-356.292	1526.828	905.353	-267.982	1536.885	907.216	-167.608	1516.772	903.490	-368.356	1378.653	958.066	-227.772	1372.378	957.566	-282.291	1458.536	462.649	-123.293	1445.515	469.263	-398.403	1428.977	453.813	-228.803	1435.685	452.029	-292.220	1410.419	64.305	-135.863	1409.408	67.399	-394.068	1442.466	76.733	-200.840	1439.046	75.748	-333.615	1373.480	42.896	-167.881	1370.313	48.145	-344.149	1497.511	1299.716	-285.446	1569.372	1140.039	-278.850	1413.329	1348.889	-272.267	1517.927	1294.581	-226.567	1507.933	1286.369	-335.267	1533.688	41.228	-126.862	1532.176	39.049	-407.631	1592.216	622.335	-199.519	1575.427	627.486	-329.881	1524.268	678.421	-150.097	1502.336	674.448	-381.635	1510.639	593.300	-144.595	1501.029	586.695	-379.383	1412.245	187.369	-65.071	1363.236	186.510	-444.493	1416.603	193.301	-106.769	1384.622	190.722	-407.094
	93	0.77500	1455.939	835.332	-259.286	1466.798	836.341	-201.572	1445.080	834.324	-317.001	1444.396	459.884	-176.249	1441.308	465.378	-344.083	1420.513	63.363	-172.972	1416.699	65.779	-356.315	1526.796	905.316	-267.776	1536.936	907.218	-167.468	1516.655	903.414	-368.084	1378.664	958.046	-227.594	1372.412	957.561	-282.088	1458.593	462.609	-123.183	1445.442	469.315	-398.283	1429.003	453.829	-228.864	1435.595	452.155	-291.998	1410.456	64.276	-135.820	1409.424	67.383	-394.088	1442.482	76.735	-200.817	1439.183	75.859	-333.678	1373.468	42.886	-167.867	1370.159	48.246	-343.997	1497.259	1299.754	-285.200	1569.375	1140.192	-278.599	1412.879	1348.866	-271.878	1517.609	1294.620	-226.308	1507.766	1286.451	-335.005	1533.696	41.209	-126.863	1532.183	39.028	-407.632	1592.232	622.247	-199.291	1575.331	627.681	-329.625	1524.275	678.346	-149.885	1502.223	674.530	-381.518	1510.626	593.229	-144.470	1500.958	586.795	-379.200	1412.290	187.319	-65.017	1363.230	186.536	-444.484	1416.637	193.301	-106.707	1384.607	190.756	-407.099
	94	0.78333	1455.823	835.321	-258.942	1466.733	836.356	-201.238	1444.913	834.286	-316.647	1444.448	459.869	-176.133	1441.252	465.408	-343.964	1420.518	63.352	-172.939	1416.722	65.761	-356.345	1526.700	905.272	-267.532	1536.926	907.223	-167.262	1516.474	903.321	-367.801	1378.682	958.022	-227.417	1372.437	957.554	-281.894	1458.667	462.566	-123.071	1445.367	469.381	-398.163	1429.021	453.860	-228.843	1435.415	452.376	-291.657	1410.478	64.257	-135.782	1409.434	67.379	-394.114	1442.490	76.739	-200.777	1439.187	75.881	-333.684	1373.458	42.874	-167.849	1370.062	48.298	-343.914	1497.066	1299.816	-284.897	1569.400	1140.349	-278.398	1412.641	1348.798	-271.548	1517.460	1294.689	-226.019	1507.559	1286.544	-334.713	1533.696	41.193	-126.870	1532.183	39.009	-407.634	1592.233	622.182	-199.092	1575.260	627.904	-329.375	1524.299	678.316	-149.689	1502.164	674.652	-381.378	1510.636	593.192	-144.333	1500.870	586.883	-378.966	1412.337	187.267	-64.960	1363.217	186.566	-444.475	1416.643	193.296	-106.622	1384.587	190.790	-407.081
	95	0.79167	1455.659	835.315	-258.578	1466.609	836.377	-200.881	1444.710	834.253	-316.274	1444.511	459.856	-176.009	1441.196	465.449	-343.849	1420.503	63.348	-172.909	1416.731	65.757	-356.375	1526.561	905.229	-267.254	1536.856	907.232	-166.992	1516.266	903.227	-367.517	1378.705	957.992	-227.233	1372.454	957.543	-281.704	1458.759	462.525	-122.953	1445.299	469.462	-398.045	1429.112	453.807	-228.725	1435.186	452.641	-291.182	1410.482	64.245	-135.747	1409.435	67.387	-394.142	1442.485	76.736	-200.738	1439.056	75.763	-333.643	1373.455	42.859	-167.826	1370.025	48.305	-343.900	1496.841	1299.866	-284.544	1569.275	1140.441	-278.126	1412.512	1348.708	-271.299	1517.286	1294.745	-225.642	1507.301	1286.606	-334.411	1533.688	41.183	-126.879	1532.171	38.996	-407.636	1592.232	622.142	-198.910	1575.220	628.158	-329.125	1524.316	678.284	-149.530	1502.145	674.754	-381.211	1510.677	593.147	-144.187	1500.770	586.942	-378.674	1412.389	187.211	-64.899	1363.202	186.596	-444.465	1416.650	193.253	-106.532	1384.577	190.797	-407.042
	96	0.80000	1455.471	835.313	-258.212	1466.439	836.400	-200.519	1444.504	834.227	-315.904	1444.584	459.844	-175.873	1441.143	465.499	-343.735	1420.472	63.343	-172.880	1416.727	65.763	-356.395	1526.398	905.196	-266.945	1536.728	907.245	-166.656	1516.068	903.147	-367.234	1378.730	957.954	-227.040	1372.460	957.524	-281.515	1458.865	462.487	-122.826	1445.243	469.552	-397.929	1429.238	453.733	-228.617	1435.070	452.898	-290.766	1410.473	64.232	-135.712	1409.428	67.405	-394.161	1442.486	76.731	-200.711	1439.116	75.853	-333.697	1373.458	42.844	-167.798	1370.016	48.301	-343.916	1496.607	1299.920	-284.241	1569.188	1140.559	-277.873	1412.352	1348.602	-271.061	1517.066	1294.804	-225.293	1507.071	1286.680	-334.161	1533.669	41.175	-126.884	1532.142	38.993	-407.635	1592.237	622.127	-198.726	1575.203	628.438	-328.850	1524.320	678.245	-149.404	1502.151	674.882	-381.079	1510.716	593.123	-144.060	1500.752	587.029	-378.409	1412.452	187.151	-64.831	1363.193	186.625	-444.457	1416.681	193.203	-106.456	1384.567	190.795	-407.025
